<?xml version="1.0" encoding="UTF-8"?>
<!-- Generated by Pixelmator Pro 3.8 -->
<svg width="886" height="236" viewBox="0 0 886 236" xmlns="http://www.w3.org/2000/svg">
    <g id="Group-copy">
        <path id="Path" fill="none" stroke="#636463" stroke-width="0.999933" stroke-linecap="round" stroke-linejoin="round" opacity="0.999727" d="M 444.400818 76.274857 C 438.289185 64.052673 425.660065 64.412643 425.660065 64.412643 L 368.622894 64.412643 C 351.512054 65.49057 348.659271 52.909424 348.659271 52.909424 C 342.548706 65.131607 329.918518 64.771622 329.918518 64.771622 L 272.881348 64.771622 C 255.770508 63.693695 252.918701 76.274857 252.918701 76.274857"/>
        <path id="path1" fill="none" stroke="#636463" stroke-width="0.999933" stroke-linecap="round" stroke-linejoin="round" opacity="0.999727" d="M 714.808105 22.94516 C 703.122803 10.722977 678.972534 11.082932 678.972534 11.082932 L 569.90686 11.082932 C 537.187012 12.160889 531.733398 -0.420288 531.733398 -0.420288 C 520.048218 11.80191 495.897797 11.441925 495.897797 11.441925 L 386.832184 11.441925 C 354.113373 10.363998 348.65976 22.94516 348.65976 22.94516"/>
        <path id="path2" fill="none" stroke="#636463" stroke-width="0.999933" stroke-linecap="round" stroke-linejoin="round" opacity="0.999727" d="M 308.504242 134.730606 C 305.41449 125.269241 299.029907 125.547226 299.029907 125.547226 L 270.194855 125.547226 C 261.544434 126.382172 260.102509 116.64283 260.102509 116.64283 C 257.013733 126.104187 250.62915 125.826218 250.62915 125.826218 L 221.794098 125.826218 C 213.143677 124.991272 211.701782 134.730606 211.701782 134.730606"/>
        <path id="path3" fill="none" stroke="#636463" stroke-width="0.999933" stroke-linecap="round" stroke-linejoin="round" opacity="0.999727" d="M 812.254089 76.274857 C 806.142517 64.052673 793.513306 64.412643 793.513306 64.412643 L 736.476196 64.412643 C 719.365356 65.49057 716.51355 52.909424 716.51355 52.909424 C 710.401917 65.131607 697.771851 64.771622 697.771851 64.771622 L 640.73468 64.771622 C 623.62384 63.693695 620.772034 76.274857 620.772034 76.274857"/>
        <path id="path4" fill="none" stroke="#636463" stroke-width="0.999933" stroke-linecap="round" stroke-linejoin="round" opacity="0.999727" d="M 856.521179 134.730606 C 853.431458 125.269241 847.046814 125.547226 847.046814 125.547226 L 818.211792 125.547226 C 809.56134 126.382172 808.119446 116.64283 808.119446 116.64283 C 805.030701 126.104187 798.646118 125.826218 798.646118 125.826218 L 769.810974 125.826218 C 761.160645 124.991272 759.71875 134.730606 759.71875 134.730606"/>
        <path id="path5" fill="#125e55" stroke="none" opacity="0.29524" d="M 242.024063 208.850616 L 181.380127 208.850616 L 181.380127 179.848557 L 242.024063 179.848557 Z"/>
        <path id="path6" fill="#754a24" stroke="none" opacity="0.29524" d="M 339.494476 208.850616 L 278.850555 208.850616 L 278.850555 179.848557 L 339.494476 179.848557 Z"/>
        <path id="path7" fill="#125e55" stroke="none" opacity="0.29524" d="M 474.723328 208.850616 L 414.079437 208.850616 L 414.079437 179.848557 L 474.723328 179.848557 Z"/>
        <path id="path8" fill="none" stroke="#636463" stroke-width="2.119489" stroke-linecap="round" stroke-linejoin="round" opacity="0.999727" d="M 444.835968 116.642632 L 444.835968 134.730408"/>
        <path id="path9" fill="none" stroke="#636463" stroke-width="2.119489" stroke-linecap="round" stroke-linejoin="round" opacity="0.999727" d="M 620.989441 116.642632 L 620.989441 134.730408"/>
        <path id="path10" fill="#c7a866" stroke="none" opacity="0.29524" d="M 651.311462 208.850616 L 590.66748 208.850616 L 590.66748 179.848557 L 651.311462 179.848557 Z"/>
        <path id="path11" fill="#b9ded3" stroke="none" opacity="0.29524" d="M 790.405029 208.850616 L 729.761169 208.850616 L 729.761169 179.848557 L 790.405029 179.848557 Z"/>
        <path id="path12" fill="#f1e1b7" stroke="none" opacity="0.29524" d="M 886.843567 208.850616 L 826.199646 208.850616 L 826.199646 179.848557 L 886.843567 179.848557 Z"/>
        <path id="path13" fill="none" stroke="#1a1919" stroke-width="6.358468" stroke-linecap="round" stroke-linejoin="round" d="M 98.683517 192.38942 L 172.025574 192.38942"/>
        <path id="path14" fill="#1a1919" stroke="none" d="M 163.87442 202.449646 L 162.196518 200.647766 L 171.080933 192.391327 L 162.196518 184.132874 L 163.87442 182.330994 L 174.692688 192.391327 Z"/>
        <text id="Population-decline" xml:space="preserve" x="289" y="45" font-family="Helvetica" font-size="15.027087" fill="#161617">Population decline</text>
        <text id="Urban-" xml:space="preserve" x="240" y="91" font-family="Helvetica" font-size="15.027087" fill="#161617">Urban</text>
        <text id="compression" xml:space="preserve" x="217" y="109" font-family="Helvetica" font-size="15.027087" fill="#161617">compression</text>
        <text id="text1" xml:space="preserve" x="420" y="91" font-family="Helvetica" font-size="15.027087" fill="#161617">Urban</text>
        <text id="expansion" xml:space="preserve" x="407" y="109" font-family="Helvetica" font-size="15.027087" fill="#161617">expansion</text>
        <text id="Density-" xml:space="preserve" x="186" y="148" font-family="Helvetica" font-size="15.027087" fill="#161617">Density</text>
        <text id="loss" xml:space="preserve" x="199" y="166" font-family="Helvetica" font-size="15.027087" fill="#161617">loss</text>
        <text id="text2" xml:space="preserve" x="283" y="148" font-family="Helvetica" font-size="15.027087" fill="#161617">Density</text>
        <text id="gain" xml:space="preserve" x="295" y="166" font-family="Helvetica" font-size="15.027087" fill="#161617">gain</text>
        <text id="text3" xml:space="preserve" x="418" y="148" font-family="Helvetica" font-size="15.027087" fill="#161617">Density</text>
        <text id="text4" xml:space="preserve" x="431" y="166" font-family="Helvetica" font-size="15.027087" fill="#161617">loss</text>
        <text id="Population-growth" xml:space="preserve" x="658" y="45" font-family="Helvetica" font-size="15.027087" fill="#161617">Population growth</text>
        <text id="text5" xml:space="preserve" x="608" y="91" font-family="Helvetica" font-size="15.027087" fill="#161617">Urban</text>
        <text id="text6" xml:space="preserve" x="585" y="109" font-family="Helvetica" font-size="15.027087" fill="#161617">compression</text>
        <text id="text7" xml:space="preserve" x="788" y="91" font-family="Helvetica" font-size="15.027087" fill="#161617">Urban</text>
        <text id="text8" xml:space="preserve" x="775" y="109" font-family="Helvetica" font-size="15.027087" fill="#161617">expansion</text>
        <text id="text9" xml:space="preserve" x="734" y="148" font-family="Helvetica" font-size="15.027087" fill="#161617">Density</text>
        <text id="text10" xml:space="preserve" x="747" y="166" font-family="Helvetica" font-size="15.027087" fill="#161617">loss</text>
        <text id="text11" xml:space="preserve" x="831" y="148" font-family="Helvetica" font-size="15.027087" fill="#161617">Density</text>
        <text id="text12" xml:space="preserve" x="843" y="166" font-family="Helvetica" font-size="15.027087" fill="#161617">gain</text>
        <text id="text13" xml:space="preserve" x="595" y="148" font-family="Helvetica" font-size="15.027087" fill="#161617">Density</text>
        <text id="text14" xml:space="preserve" x="606" y="166" font-family="Helvetica" font-size="15.027087" fill="#161617">gain</text>
        <text id="0" xml:space="preserve" x="206" y="199" font-family="Helvetica" font-size="20.806797" fill="#161617">0</text>
        <text id="text15" xml:space="preserve" x="304" y="199" font-family="Helvetica" font-size="20.806797" fill="#161617">0</text>
        <text id="14" xml:space="preserve" x="421" y="200" font-family="Helvetica" font-size="20.806797" fill="#161617">1.4%</text>
        <text id="10" xml:space="preserve" x="598" y="202" font-family="Helvetica" font-size="20.806797" fill="#161617">1.0%</text>
        <text id="913" xml:space="preserve" x="732" y="202" font-family="Helvetica" font-size="20.806797" fill="#161617">91.3%</text>
        <text id="63" xml:space="preserve" x="835" y="200" font-family="Helvetica" font-size="20.806797" fill="#161617">6.3%</text>
        <text id="observations-" xml:space="preserve" x="1" y="193" font-family="Helvetica" font-size="15.027087" fill="#161617">observations</text>
        <text id="in-Mexico" xml:space="preserve" x="14" y="211" font-family="Helvetica" font-size="15.027087" fill="#161617">in Mexico</text>
        <text id="1990--2020" xml:space="preserve" x="3" y="229" font-family="Helvetica" font-size="15.027087" fill="#161617">1990 – 2020</text>
        <text id="207-" xml:space="preserve" x="20" y="174" font-family="Helvetica" font-size="26.998179" fill="#161617">207</text>
    </g>
</svg>
